<svg width="0" height="0" class="hidden">
<!-- header icons -->
  <symbol fill="" xmlns="http://www.w3.org/2000/svg" viewBox="0 0 16 22" id="bell">
    <path d="M15.125 17h-.563V9.031a6.561 6.561 0 00-5.624-6.494v-.912a.937.937 0 10-1.876 0v.912A6.561 6.561 0 001.438 9.03V17H.875a.75.75 0 00-.75.75v.75c0 .103.084.188.188.188h5.062A2.627 2.627 0 008 21.313a2.627 2.627 0 002.625-2.625h5.063a.188.188 0 00.187-.188v-.75a.75.75 0 00-.75-.75zM8 19.813a1.125 1.125 0 01-1.125-1.125h2.25c0 .62-.504 1.125-1.125 1.125zM3.125 17V9.031a4.84 4.84 0 011.427-3.447A4.841 4.841 0 018 4.156c1.303 0 2.527.506 3.448 1.428a4.842 4.842 0 011.427 3.447V17h-9.75z" fill=""></path>
  </symbol>
  <symbol fill="" xmlns="http://www.w3.org/2000/svg" viewBox="0 0 12 8" id="arrow">
    <path d="M11.13.688H.869c-.308 0-.48.325-.289.546l5.131 5.95c.147.17.43.17.579 0l5.13-5.95c.191-.222.02-.546-.288-.546z" fill=""></path>
  </symbol>
  <symbol fill="" xmlns="http://www.w3.org/2000/svg" viewBox="0 0 20 20" id="friends">
    <path d="M18.906 16.094h-1.875v-1.875a.188.188 0 00-.187-.188h-1.125a.188.188 0 00-.188.188v1.875h-1.875a.188.188 0 00-.187.187v1.125c0 .103.084.188.187.188h1.875v1.875c0 .103.085.187.188.187h1.125a.188.188 0 00.187-.187v-1.875h1.875a.188.188 0 00.188-.188v-1.125a.188.188 0 00-.188-.187zM6.754 9.68a5.965 5.965 0 01.068-1.709.189.189 0 00-.106-.206 2.962 2.962 0 01-.865-.588 2.99 2.99 0 01-.907-2.236 2.985 2.985 0 01.851-2.006 2.984 2.984 0 012.185-.907 2.996 2.996 0 012.493 1.378.187.187 0 00.218.075 5.814 5.814 0 011.296-.29.188.188 0 00.148-.272A4.696 4.696 0 008.017.344C5.42.304 3.255 2.434 3.255 5.03c0 1.472.677 2.785 1.739 3.645a7.046 7.046 0 00-2.028 1.415 6.97 6.97 0 00-2.058 4.782.188.188 0 00.188.192H2.41c.1 0 .185-.08.187-.18a5.297 5.297 0 011.564-3.598 5.29 5.29 0 012.453-1.4.192.192 0 00.139-.206zm10.558-.619a4.69 4.69 0 00-4.615-4.687c-2.596-.04-4.76 2.09-4.76 4.687 0 1.472.68 2.785 1.74 3.645a7.055 7.055 0 00-2.026 1.416A6.97 6.97 0 005.594 18.9a.188.188 0 00.187.193h1.313c.1 0 .185-.08.187-.18a5.297 5.297 0 011.563-3.598 5.307 5.307 0 013.78-1.566 4.688 4.688 0 004.688-4.688zm-2.566 2.122a2.978 2.978 0 01-2.121.879 2.978 2.978 0 01-2.121-.88 2.982 2.982 0 01-.88-2.151 3.004 3.004 0 012.97-2.97 3.017 3.017 0 012.133.858c.581.57.9 1.332.9 2.142a2.99 2.99 0 01-.881 2.122z" fill=""></path>
  </symbol>
  <symbol fill="" xmlns="http://www.w3.org/2000/svg" viewBox="0 0 24 24" id="info-circle">
    <path d="M12 1.5C6.202 1.5 1.5 6.202 1.5 12S6.202 22.5 12 22.5 22.5 17.798 22.5 12 17.798 1.5 12 1.5zm0 19.219A8.72 8.72 0 013.281 12 8.72 8.72 0 0112 3.281 8.72 8.72 0 0120.719 12 8.72 8.72 0 0112 20.719z" fill=""></path>
    <path d="M10.875 7.875a1.125 1.125 0 102.25 0 1.125 1.125 0 00-2.25 0zm1.688 2.625h-1.126a.188.188 0 00-.187.188v6.374c0 .104.084.188.188.188h1.124a.188.188 0 00.188-.188v-6.375a.188.188 0 00-.188-.187z" fill=""></path>
  </symbol>
  <symbol fill="" xmlns="http://www.w3.org/2000/svg" viewBox="0 0 22 22" id="message">
    <path d="M9.875 11a1.125 1.125 0 102.25 0 1.125 1.125 0 00-2.25 0zm4.688 0a1.125 1.125 0 102.25 0 1.125 1.125 0 00-2.25 0zm-9.375 0a1.125 1.125 0 102.25 0 1.125 1.125 0 00-2.25 0zm15.497-4.069A10.503 10.503 0 0011 .5h-.047A10.475 10.475 0 00.5 11.05a10.533 10.533 0 001.125 4.684v3.563a1.078 1.078 0 001.078 1.078h3.565a10.533 10.533 0 004.685 1.125h.05c1.403 0 2.765-.272 4.047-.804a10.417 10.417 0 003.347-2.231 10.475 10.475 0 003.103-7.418 10.46 10.46 0 00-.815-4.116zm-3.542 10.266A8.673 8.673 0 0111 19.719h-.04a8.75 8.75 0 01-4.057-1.02l-.197-.105h-3.3v-3.3l-.105-.197a8.75 8.75 0 01-1.02-4.057 8.665 8.665 0 012.522-6.183 8.653 8.653 0 016.16-2.576h.04c1.171 0 2.308.228 3.38.678a8.664 8.664 0 012.788 1.875 8.683 8.683 0 012.552 6.206 8.685 8.685 0 01-2.58 6.157z" fill=""></path>
  </symbol>
  <!-- sidebar icons -->
  <symbol xmlns="http://www.w3.org/2000/svg" viewBox="0 0 24 24" id="flag-big">
    <path d="M4.313 5.438h8.625v7.875H4.312V5.436z" fill="#E6F7FF"></path>
    <path d="M14.625 14.813a.188.188 0 01-.188.187h-2.624v1.71h7.874V8.837h-5.062v5.976z" fill="#E6F7FF"></path>
    <path d="M20.625 7.148h-6V4.5a.75.75 0 00-.75-.75H4.312v-.938a.188.188 0 00-.187-.187H2.812a.188.188 0 00-.187.188v18.375c0 .103.084.187.188.187h1.312a.188.188 0 00.188-.188V15h5.812v2.648c0 .415.335.75.75.75h9.75a.75.75 0 00.75-.75v-9.75a.75.75 0 00-.75-.75zM4.312 13.313V5.436h8.625v7.875H4.313zm15.375 3.398h-7.875V15h2.626a.188.188 0 00.187-.188V8.837h5.063v7.875z" fill=""></path>
  </symbol>
  <symbol fill="" xmlns="http://www.w3.org/2000/svg" viewBox="0 0 24 24" id="groups">
    <path d="M16.313 14.813h3v4.5h-3v-4.5zm-11.625 0h3v4.5h-3v-4.5z" fill="#E6F7FF"></path>
    <path d="M12 3a9 9 0 00-9 9v8.438c0 .311.25.562.563.562h4.312c.827 0 1.5-.673 1.5-1.5v-4.875c0-.827-.673-1.5-1.5-1.5H4.687V12a7.313 7.313 0 0114.625 0v1.125h-3.187c-.827 0-1.5.673-1.5 1.5V19.5c0 .827.673 1.5 1.5 1.5h4.313a.56.56 0 00.562-.563V12a9 9 0 00-9-9zM7.687 14.813v4.5h-3v-4.5h3zm11.625 4.5h-3v-4.5h3v4.5z" fill=""></path>
  </symbol>
  <symbol fill="" xmlns="http://www.w3.org/2000/svg" viewBox="0 0 24 24" id="home">
    <path d="M12.003 4.045L3.331 12.71h2.25v7.634h3.607V15c0-.518.42-.938.938-.938h3.75c.518 0 .937.42.937.938v5.344h3.607V12.71h2.253l-8.128-8.123-.542-.542zm10.184 9.912zm-20.79-.813c.118.71.737 1.254 1.48 1.254h.02a1.52 1.52 0 01-1.5-1.254zm-.02-.246v-.045.045zm.002-.061z" fill="#E6F7FF"></path>
    <path d="M22.288 11.953c0-.002-.002-.002-.002-.005l-.042-.049c-.003-.002-.005-.007-.01-.01l-.051-.055-9.056-9.05-.607-.607a.738.738 0 00-1.041 0l-9.663 9.659a1.491 1.491 0 00-.375.623l-.014.05-.007.025-.007.028c-.005.017-.007.033-.01.05 0 .002 0 .007-.002.01a1.29 1.29 0 00-.024.212v.078c0 .011 0 .023.003.035 0 .012 0 .021.002.033l.002.035c0 .014.003.028.005.042l.002.021.007.059v.002a1.52 1.52 0 001.5 1.254h.997v7.638h16.211v-7.633h1.017c.202 0 .397-.04.575-.115a1.491 1.491 0 00.926-1.387c0-.345-.118-.676-.336-.943zm-8.976 8.39h-2.625v-4.78h2.625v4.78zm5.107-7.633v7.634h-3.607V15a.937.937 0 00-.938-.938h-3.75a.937.937 0 00-.937.938v5.344H5.58V12.71H3.33l8.672-8.665.541.542 8.128 8.123H18.42z" fill=""></path>
  </symbol>
  <symbol fill="" xmlns="http://www.w3.org/2000/svg" viewBox="0 0 24 24" id="news">
    <path d="M20.625 2.625H3.375a.75.75 0 00-.75.75v17.25c0 .415.335.75.75.75h17.25a.75.75 0 00.75-.75V3.375a.75.75 0 00-.75-.75zm-.938 17.063H4.313V4.313h15.375v15.375z" fill=""></path>
    <path d="M4.313 19.688h15.375V4.313H4.313v15.375zm7.03-11.625c0-.104.085-.188.188-.188h4.313c.103 0 .187.084.187.188v1.124a.188.188 0 01-.187.188H11.53a.188.188 0 01-.187-.188V8.063zm0 3.374c0-.103.085-.187.188-.187h4.313c.103 0 .187.084.187.188v1.124a.188.188 0 01-.187.188H11.53a.188.188 0 01-.187-.188v-1.124zm0 3.376c0-.104.085-.188.188-.188h4.313c.103 0 .187.084.187.188v1.124a.188.188 0 01-.187.188H11.53a.188.188 0 01-.187-.188v-1.124zM8.907 7.686a.937.937 0 110 1.875.937.937 0 010-1.874zm0 3.375a.937.937 0 110 1.875.937.937 0 010-1.874zm0 3.376a.937.937 0 110 1.874.937.937 0 010-1.875z" fill="#E6F7FF"></path>
    <path d="M7.969 15.375a.937.937 0 101.875 0 .937.937 0 00-1.875 0zm0-3.375a.937.937 0 101.875 0 .937.937 0 00-1.875 0zm0-3.375a.937.937 0 101.875 0 .937.937 0 00-1.875 0zm3.562 7.5h4.313a.188.188 0 00.187-.188v-1.124a.188.188 0 00-.187-.188H11.53a.188.188 0 00-.187.188v1.124c0 .104.084.188.187.188zm0-3.375h4.313a.188.188 0 00.187-.188v-1.124a.188.188 0 00-.187-.188H11.53a.188.188 0 00-.187.188v1.124c0 .104.084.188.187.188zm0-3.375h4.313a.188.188 0 00.187-.188V8.063a.188.188 0 00-.187-.188H11.53a.188.188 0 00-.187.188v1.124c0 .104.084.188.187.188z" fill=""></path>
  </symbol>
  <symbol fill="" xmlns="http://www.w3.org/2000/svg" viewBox="0 0 24 24" id="rocket">
    <path d="M6.134 14.564c-.22.342-.398.71-.527 1.092h1.987v-2.561a4.987 4.987 0 00-1.46 1.47zm10.273-1.47v2.562h1.988a4.96 4.96 0 00-1.988-2.562zm-1.5-5.622l-2.906-3.445-2.907 3.445v8.184h5.813V7.472zM12.001 10.5a1.125 1.125 0 010-2.25 1.125 1.125 0 010 2.25z" fill="#E6F7FF"></path>
    <path d="M20.25 17.25a6.56 6.56 0 00-3.75-5.927V7.437c0-.354-.124-.696-.354-.966l-3.572-4.235a.749.749 0 00-1.148 0L7.854 6.47a1.5 1.5 0 00-.354.966v3.886a6.56 6.56 0 00-3.75 5.927h3.668a1.81 1.81 0 00-.082.558 2.276 2.276 0 001.512 2.142A3.417 3.417 0 0012 22.031a3.41 3.41 0 001.908-.581c.553-.37.982-.888 1.242-1.5.396-.14.746-.388 1.01-.715.324-.404.5-.907.502-1.425 0-.197-.026-.384-.073-.558l3.661-.002zM7.594 15.656H5.606a4.987 4.987 0 011.987-2.562v2.562zm1.5-4.333V7.472L12 4.027l2.906 3.445v8.184H9.094v-4.333zm5.627 7.057a.632.632 0 01-.4.08l-.458-.057-.065.455A1.825 1.825 0 0112 20.416c-.898 0-1.671-.67-1.798-1.558l-.065-.457-.457.058a.66.66 0 01-.731-.654c0-.248.138-.454.342-.557h5.42a.619.619 0 01.343.557.665.665 0 01-.333.575zm1.685-2.724v-2.562a4.958 4.958 0 011.988 2.562h-1.988z" fill=""></path>
    <path d="M10.875 9.375a1.125 1.125 0 102.25 0 1.125 1.125 0 00-2.25 0z" fill=""></path>
  </symbol>
  <symbol fill="" xmlns="http://www.w3.org/2000/svg" viewBox="0 0 24 24" id="shop">
    <path d="M19.676 8.063H4.324c-.007 0-.011.004-.011.011v2.138c0 1.401 1.148 2.538 2.561 2.538a2.57 2.57 0 002.23-1.282.387.387 0 01.67 0A2.563 2.563 0 0012 12.75a2.56 2.56 0 002.229-1.287.378.378 0 01.326-.19h.014c.136 0 .258.073.325.19a2.567 2.567 0 002.232 1.287c1.413 0 2.561-1.137 2.561-2.538V8.074c0-.007-.004-.011-.011-.011z" fill="#E6F7FF"></path>
    <path d="M20.672 6.377V3.375a.75.75 0 00-.75-.75H4.08a.75.75 0 00-.75.75v3.002a.75.75 0 00-.704.748v3.087a4.148 4.148 0 00.338 1.65c.1.239.225.464.366.677v8.086c0 .413.335.75.75.75h15.843a.75.75 0 00.75-.75v-8.086a4.19 4.19 0 00.703-2.327V7.125a.75.75 0 00-.703-.748zM5.016 4.313h13.969v2.062H5.016V4.312zM13.5 19.69h-3v-2.44h3v2.44zm5.494 0H15V16.5a.75.75 0 00-.75-.75h-4.5a.75.75 0 00-.75.75v3.19H5.016v-5.677a4.225 4.225 0 001.86.424 4.283 4.283 0 002.557-.848.015.015 0 01.015 0 4.247 4.247 0 002.557.848 4.238 4.238 0 002.557-.848.015.015 0 01.014 0 4.247 4.247 0 002.557.848 4.233 4.233 0 001.861-.424v5.677zm.694-9.478c0 1.401-1.149 2.538-2.562 2.538-.956 0-1.79-.518-2.231-1.287a.375.375 0 00-.326-.19h-.014a.378.378 0 00-.326.19A2.56 2.56 0 0112 12.75a2.563 2.563 0 01-2.226-1.282.387.387 0 00-.67 0 2.57 2.57 0 01-2.23 1.282c-1.413 0-2.561-1.137-2.561-2.538V8.074c0-.007.005-.011.012-.011h15.351c.007 0 .012.004.012.011v2.138z" fill=""></path>
  </symbol>
  <symbol fill="" xmlns="http://www.w3.org/2000/svg" viewBox="0 0 24 24" id="trophy">
    <path d="M7.5 11.25a4.29 4.29 0 001.263 3.05 4.28 4.28 0 003.05 1.262h.374a4.284 4.284 0 003.05-1.263A4.28 4.28 0 0016.5 11.25V4.312h-9v6.938zm-3.188-3zm8.532 8.965zm-6.98-5.168z" fill="#E6F7FF"></path>
    <path d="M20.344 3.75h-2.157v-.938A.188.188 0 0018 2.626H6a.188.188 0 00-.188.188v.937H3.656a1.031 1.031 0 00-1.031 1.031V8.25a3.85 3.85 0 003.24 3.797 6.007 6.007 0 005.291 5.168v2.465H6.562a.75.75 0 00-.75.75v.758c0 .103.085.187.188.187h12a.188.188 0 00.188-.188v-.757a.75.75 0 00-.75-.75h-4.594v-2.465a6.007 6.007 0 005.292-5.168 3.85 3.85 0 003.239-3.797V4.781a1.032 1.032 0 00-1.031-1.031zM5.812 10.303a2.156 2.156 0 01-1.5-2.053V5.437h1.5v4.866zm10.688.947a4.28 4.28 0 01-1.263 3.05 4.283 4.283 0 01-3.05 1.262h-.374a4.28 4.28 0 01-3.05-1.263A4.283 4.283 0 017.5 11.25V4.312h9v6.938zm3.188-3c0 .96-.631 1.777-1.5 2.053V5.437h1.5V8.25z" fill=""></path>
  </symbol>
<!-- post icons -->
<symbol fill="" xmlns="http://www.w3.org/2000/svg" viewBox="0 0 24 24" id="picture">
    <path d="M21.75 3.75H2.25a.75.75 0 00-.75.75v15c0 .415.335.75.75.75h19.5a.75.75 0 00.75-.75v-15a.75.75 0 00-.75-.75zm-.938 14.813H3.188v-.936l3.247-3.85 3.518 4.171 5.472-6.487 5.389 6.389v.712zm0-3.043L15.567 9.3a.186.186 0 00-.286 0l-5.33 6.319-3.374-4.001a.186.186 0 00-.286 0l-3.104 3.68v-9.86h17.625V15.52z" fill=""></path>
    <path d="M9.952 17.948l-3.518-4.171-3.247 3.85v.936h17.625v-.713l-5.388-6.39-5.472 6.488z" fill="#E6F7FF"></path>
    <path d="M3.188 15.298l3.103-3.68c.075-.09.21-.09.286 0l3.375 4 5.33-6.318a.186.186 0 01.285 0l5.245 6.22V5.438H3.188v9.86zm3.937-8.736a2.062 2.062 0 110 4.125 2.062 2.062 0 010-4.124z" fill="#E6F7FF"></path>
    <path d="M6.469 8.625a.656.656 0 101.312 0 .656.656 0 00-1.312 0z" fill="#E6F7FF"></path>
    <path d="M7.125 10.688a2.062 2.062 0 100-4.124 2.062 2.062 0 000 4.123zm0-2.72a.655.655 0 110 1.313.655.655 0 110-1.312z" fill=""></path>
  </symbol>
  <symbol fill="" xmlns="http://www.w3.org/2000/svg" viewBox="0 0 24 24" id="smile">
    <path d="M12 1.5C6.202 1.5 1.5 6.202 1.5 12S6.202 22.5 12 22.5 22.5 17.798 22.5 12 17.798 1.5 12 1.5zm0 19.219A8.72 8.72 0 013.281 12 8.72 8.72 0 0112 3.281 8.72 8.72 0 0120.719 12 8.72 8.72 0 0112 20.719z" fill=""></path>
    <path d="M12 3.281A8.72 8.72 0 003.281 12 8.72 8.72 0 0012 20.719 8.72 8.72 0 0020.719 12 8.72 8.72 0 0012 3.281zM6.75 9.867a1.125 1.125 0 012.25 0 1.125 1.125 0 01-2.25 0zM12 16.242a3.759 3.759 0 01-3.75-3.553.188.188 0 01.188-.197h1.127a.19.19 0 01.19.174 2.252 2.252 0 004.49 0 .19.19 0 01.19-.174h1.127a.188.188 0 01.188.197A3.759 3.759 0 0112 16.242zm4.125-5.25a1.125 1.125 0 010-2.25 1.125 1.125 0 010 2.25z" fill="#E6F7FF"></path>
    <path d="M6.75 9.867a1.125 1.125 0 102.25 0 1.125 1.125 0 00-2.25 0zm8.813 2.625h-1.128a.19.19 0 00-.19.174 2.252 2.252 0 01-4.49 0 .19.19 0 00-.19-.174H8.438a.188.188 0 00-.188.197A3.759 3.759 0 0012 16.242a3.759 3.759 0 003.75-3.553.187.187 0 00-.188-.197zM15 9.867a1.125 1.125 0 102.25 0 1.125 1.125 0 00-2.25 0z" fill=""></path>
  </symbol>
  <symbol fill="none" xmlns="http://www.w3.org/2000/svg" viewBox="0 0 14 14" id="settings">
    <path d="M12.644 8.555l-.896-.766a4.915 4.915 0 000-1.58l.896-.766a.437.437 0 00.127-.481l-.012-.036a6.067 6.067 0 00-1.09-1.885l-.025-.029a.439.439 0 00-.48-.13l-1.111.395A4.817 4.817 0 008.69 2.49l-.215-1.162a.438.438 0 00-.352-.352L8.086.97a6.177 6.177 0 00-2.174 0l-.037.006a.438.438 0 00-.353.352l-.216 1.167a4.81 4.81 0 00-1.353.785l-1.12-.398a.437.437 0 00-.48.13l-.025.029a6.098 6.098 0 00-1.09 1.885l-.012.036a.44.44 0 00.128.481l.906.774a4.81 4.81 0 000 1.561l-.906.774a.438.438 0 00-.128.481l.013.036a6.063 6.063 0 001.09 1.885l.024.029a.44.44 0 00.48.13l1.12-.398c.407.335.862.6 1.353.785l.216 1.167a.438.438 0 00.353.352l.037.006a6.14 6.14 0 002.174 0l.037-.006a.437.437 0 00.352-.352l.215-1.162a4.783 4.783 0 001.363-.787l1.111.395a.438.438 0 00.48-.13l.025-.029a6.1 6.1 0 001.09-1.885l.012-.036a.436.436 0 00-.127-.478zM10.778 6.37a3.867 3.867 0 010 1.26l-.09.549 1.02.873c-.154.357-.35.695-.582 1.007l-1.268-.45-.43.353c-.327.268-.69.478-1.084.626l-.52.195-.246 1.326a5.155 5.155 0 01-1.162 0l-.244-1.329-.517-.198a3.826 3.826 0 01-1.076-.625l-.43-.354-1.276.454a5.167 5.167 0 01-.583-1.006l1.032-.882-.089-.547a3.937 3.937 0 010-1.244l.09-.547L2.29 4.95c.155-.356.35-.693.583-1.006l1.276.454.43-.354a3.825 3.825 0 011.076-.625l.518-.195.245-1.33a5.161 5.161 0 011.162 0l.244 1.327.521.195a3.84 3.84 0 011.085.627l.429.352 1.269-.45c.232.314.426.651.582 1.007l-1.021.873.089.546zM7 4.457A2.406 2.406 0 107 9.27a2.406 2.406 0 000-4.813zm1.083 3.49A1.526 1.526 0 017 8.394a1.526 1.526 0 01-1.415-.945 1.526 1.526 0 01.332-1.669A1.52 1.52 0 017 5.332c.409 0 .793.159 1.083.449a1.526 1.526 0 01.448 1.083c0 .408-.16.793-.448 1.082z" fill="#8C8C8C"></path>
  </symbol>
  <symbol fill="" xmlns="http://www.w3.org/2000/svg" viewBox="0 0 22 22" id="comment">
    <path d="M9.875 11a1.125 1.125 0 102.25 0 1.125 1.125 0 00-2.25 0zm4.688 0a1.125 1.125 0 102.25 0 1.125 1.125 0 00-2.25 0zm-9.375 0a1.125 1.125 0 102.25 0 1.125 1.125 0 00-2.25 0zm15.497-4.069A10.503 10.503 0 0011 .5h-.047A10.475 10.475 0 00.5 11.05a10.533 10.533 0 001.125 4.684v3.563a1.078 1.078 0 001.078 1.078h3.565a10.533 10.533 0 004.685 1.125h.05c1.403 0 2.765-.272 4.047-.804a10.417 10.417 0 003.347-2.231 10.475 10.475 0 003.103-7.418 10.46 10.46 0 00-.815-4.116zm-3.542 10.266A8.673 8.673 0 0111 19.719h-.04a8.75 8.75 0 01-4.057-1.02l-.197-.105h-3.3v-3.3l-.105-.197a8.75 8.75 0 01-1.02-4.057 8.665 8.665 0 012.522-6.183 8.653 8.653 0 016.16-2.576h.04c1.171 0 2.308.228 3.38.678a8.664 8.664 0 012.788 1.875 8.683 8.683 0 012.552 6.206 8.685 8.685 0 01-2.58 6.157z" fill=""></path>
  </symbol>
  <symbol fill="" xmlns="http://www.w3.org/2000/svg" viewBox="0 0 20 20" id="like">
    <path d="M18.763 10.51c.394-.52.612-1.158.612-1.822 0-1.052-.588-2.048-1.535-2.604a1.586 1.586 0 00-.804-.218h-5.62l.14-2.88a2.509 2.509 0 00-.691-1.861A2.499 2.499 0 009.039.342c-1.219 0-2.297.82-2.62 1.995L4.405 9.626h-3.03a.75.75 0 00-.75.75v8.531c0 .415.335.75.75.75h14.093c.216 0 .427-.042.621-.127a3.014 3.014 0 001.709-3.642 3.016 3.016 0 00.485-2.688c.394-.52.611-1.158.611-1.821a3.2 3.2 0 00-.13-.87zm-16.45 7.46v-6.657H4.21v6.657H2.312zm14.915-8.274l-.513.445.326.596a1.338 1.338 0 01-.298 1.648l-.513.445.325.595a1.338 1.338 0 01-.298 1.648l-.512.445.325.595a1.332 1.332 0 01-.626 1.854H5.711v-6.729L8.043 2.79a1.034 1.034 0 01.989-.757.833.833 0 01.837.872l-.225 4.65h7.368c.418.255.675.687.675 1.134 0 .387-.168.753-.459 1.008z" fill=""></path>
  </symbol>
  <symbol fill="" xmlns="http://www.w3.org/2000/svg" viewBox="0 0 24 24" id="share">
    <path d="M17.625 15.563a2.8 2.8 0 00-1.767.625l-4.856-3.513a3.767 3.767 0 000-1.35l4.856-3.513a2.8 2.8 0 001.767.625 2.815 2.815 0 002.813-2.812 2.815 2.815 0 00-2.813-2.813 2.815 2.815 0 00-2.702 3.593l-4.613 3.34A3.749 3.749 0 003.562 12a3.749 3.749 0 006.748 2.255l4.613 3.34a2.815 2.815 0 002.702 3.593 2.815 2.815 0 002.813-2.813 2.815 2.815 0 00-2.813-2.813zm0-11.157a1.22 1.22 0 11-.001 2.439 1.22 1.22 0 01.001-2.439zM7.312 14.063A2.066 2.066 0 015.25 12c0-1.137.926-2.063 2.063-2.063 1.136 0 2.062.926 2.062 2.063a2.066 2.066 0 01-2.063 2.063zm10.313 5.53a1.22 1.22 0 11.001-2.438 1.22 1.22 0 01-.001 2.439z" fill=""></path>
  </symbol>
  <symbol fill="" xmlns="http://www.w3.org/2000/svg" viewBox="0 0 16 4" id="btn-dots">
    <path d="M.125 1.977a1.313 1.313 0 102.625 0 1.313 1.313 0 00-2.625 0zm6.563 0a1.313 1.313 0 102.625 0 1.313 1.313 0 00-2.626 0zm6.562 0a1.313 1.313 0 102.625 0 1.313 1.313 0 00-2.625 0z" fill=""></path>
  </symbol>
    <symbol fill="none" xmlns="http://www.w3.org/2000/svg" viewBox="0 0 24 24" id="gift">
    <path d="M12.797 8.86h6.984v2.437h-6.984V8.859zm-7.453 4.03h5.86v7.22h-5.86v-7.22zM4.219 8.86h6.984v2.437H4.22V8.859zm8.578 4.03h5.86v7.22h-5.86v-7.22z" fill="#E6F7FF"></path>
    <path d="M20.625 7.266h-3.46a3.226 3.226 0 00.507-1.735 3.238 3.238 0 00-3.235-3.234A3.23 3.23 0 0012 3.407a3.23 3.23 0 00-2.438-1.11A3.238 3.238 0 006.329 5.53c0 .638.185 1.233.506 1.735h-3.46a.75.75 0 00-.75.75v4.687c0 .103.084.188.188.188h.937v8.062c0 .415.335.75.75.75h15a.75.75 0 00.75-.75V12.89h.938a.188.188 0 00.187-.188V8.016a.75.75 0 00-.75-.75zm-9.422 12.843h-5.86v-7.218h5.86v7.218zm0-8.812H4.22V8.859h6.984v2.438zm0-4.125h-1.64a1.642 1.642 0 01-1.641-1.64c0-.905.736-1.641 1.64-1.641.905 0 1.641.736 1.641 1.64v1.64zm1.594-1.64c0-.905.736-1.641 1.64-1.641.905 0 1.641.736 1.641 1.64 0 .905-.736 1.64-1.64 1.64h-1.641v-1.64zm5.86 14.577h-5.86v-7.218h5.86v7.218zm1.124-8.812h-6.984V8.859h6.984v2.438z" fill="#1890FF"></path>
  </symbol>
  <!-- Right sidebar icons -->
  <symbol fill="" xmlns="http://www.w3.org/2000/svg" viewBox="0 0 16 16" id="clock">
    <path d="M8 1a7 7 0 10.001 14.001A7 7 0 008 1zm0 12.813A5.813 5.813 0 018 2.187a5.813 5.813 0 010 11.626z" fill="#0050B3"></path>
    <path d="M10.73 9.978l-2.228-1.61V4.5a.125.125 0 00-.125-.125h-.752A.125.125 0 007.5 4.5v4.303c0 .04.019.078.052.102l2.584 1.884c.056.04.134.028.175-.027l.447-.609a.125.125 0 00-.028-.175z" fill="#0050B3"></path>
  </symbol>
</svg>